<svg width="150" height="99" viewBox="0 0 150 99" fill="none" xmlns="http://www.w3.org/2000/svg">
<path fill-rule="evenodd" clip-rule="evenodd" d="M118.366 29.6164C121.75 32.2766 122.95 36.2903 119.757 40.0035C118.409 41.5714 116.764 42.7569 114.978 43.7495C110.517 46.2325 105.681 47.6691 100.726 48.7641C96.145 49.7784 91.5088 50.3933 86.8322 50.7429C81.7358 51.1245 76.6331 51.2886 71.5371 50.9129C67.5676 50.6203 63.5952 50.2423 59.6585 49.6772C54.1851 48.8898 48.8343 47.5457 43.7442 45.3289C40.9252 44.1011 38.2118 42.681 36.0785 40.374C32.8519 36.887 33.2425 33.2624 36.5101 30.0834C38.9885 27.6744 42.0485 26.1994 45.2279 24.9625C46.551 24.448 47.895 23.9889 49.2936 23.6413C48.6285 24 47.9547 24.3424 47.3007 24.7205C45.6437 25.6786 44.1058 26.7878 42.8544 28.2608C40.4022 31.1492 40.467 34.3779 43.0214 37.1962C44.854 39.2193 47.1468 40.5769 49.5745 41.7154C53.2375 43.4335 57.0931 44.6048 61.0634 45.334C64.2848 45.9268 67.5292 46.4393 70.785 46.7766C74.9445 47.208 79.1257 47.3097 83.3137 47.1554C87.1879 47.0139 91.0435 46.7201 94.873 46.1324C100.143 45.323 105.316 44.1133 110.201 41.9139C112.949 40.6761 115.577 39.2122 117.505 36.8032C119.175 34.7192 119.787 32.4438 118.487 29.9154C118.451 29.8454 118.428 29.7695 118.366 29.6164" fill="#563416"/>
<mask id="mask0_0_368" style="mask-type:luminance" maskUnits="userSpaceOnUse" x="56" y="0" width="46" height="26">
<path fill-rule="evenodd" clip-rule="evenodd" d="M56.0352 0H101.622V25.7611H56.0352V0Z" fill="white"/>
</mask>
<g mask="url(#mask0_0_368)">
<path fill-rule="evenodd" clip-rule="evenodd" d="M80.5185 25.7471C80.5185 23.7038 80.4983 21.7575 80.5316 19.8115C80.5407 19.2504 80.4283 19.0254 80.4283 19.0254C79.8222 18.5584 78.3677 17.1838 77.8336 16.6377C77.8336 16.6377 77.436 16.6163 76.9596 16.6163C76.8188 16.6163 66.7257 16.7156 66.7257 16.7156C66.1611 16.6753 65.8406 16.7219 65.8406 16.7219C65.7738 17.1312 65.6966 18.2139 65.5225 18.5817C65.4007 18.836 65.1229 19.144 64.8796 19.1776C64.6042 19.2148 64.2137 19.0499 64.0092 18.8391C63.5399 18.3567 63.117 17.8169 62.7411 17.2566C62.2932 16.5871 61.8533 16.0358 60.9278 15.9753C60.2568 15.9314 60.2172 15.5961 60.66 14.7301C59.2352 13.3868 57.803 12.0415 56.3818 10.6851C56.2346 10.5451 56.1496 10.3407 56.0352 10.1675C56.2287 10.0449 56.4234 9.8187 56.616 9.82068C57.1035 9.82384 57.6317 9.82977 58.0693 10.0144C59.3555 10.5562 60.6054 11.1865 61.8715 11.7769C62.0234 11.8489 62.1908 11.8884 62.4115 11.9624C62.3328 10.7761 62.2564 9.65182 62.1836 8.54933C63.187 8.04593 63.991 8.29309 64.675 9.00923C65.6258 10.0042 66.5615 11.0141 67.4794 12.0383C67.7544 12.3444 68.0076 12.5034 68.4397 12.4152C69.9174 12.1134 71.4023 11.8449 72.8832 11.5582C73.0229 11.531 73.1546 11.455 73.2876 11.4032L68.1516 7.08264C65.1827 5.2731 62.2564 3.39515 59.314 1.54092C59.1154 1.41636 58.9369 1.25937 58.7506 1.1178C59.5684 0.0295416 60.3569 -0.263085 61.5997 0.235171C64.8685 1.54804 68.1619 2.79526 71.4419 4.0757C74.8646 5.41111 78.2847 6.75521 81.7062 8.09457C82.2356 8.30218 83.9405 8.99737 84.424 9.28169C84.424 9.28169 93.2838 7.72167 94.3611 7.45633C95.7499 7.11388 97.1101 7.05021 98.4478 7.75528C99.0559 8.07638 99.7685 8.19581 100.425 8.42872C101.782 8.90997 102.023 10.0813 100.953 11.0639C99.8773 12.0525 98.521 12.535 97.1707 12.9684C94.2282 13.9147 91.2098 14.5367 88.1518 14.9824C87.9065 15.0188 87.5963 15.26 87.4879 15.4878C86.6242 17.3044 85.8012 19.1408 84.968 20.9717C84.3975 22.2249 83.838 23.484 83.254 24.73C82.93 25.422 82.4077 25.827 81.5899 25.7522C81.2667 25.723 80.9383 25.7471 80.5185 25.7471" fill="#563416"/>
</g>
<path fill-rule="evenodd" clip-rule="evenodd" d="M54.0175 14.831C54.1584 15.5068 54.281 16.1854 54.444 16.8561C55.5368 21.3198 57.2975 25.4561 60.4793 28.868C63.1816 31.7662 66.3895 33.917 70.1217 35.2817C76.7421 37.7006 83.2862 37.2846 89.6443 34.4781C94.8543 32.1794 98.5833 28.2792 100.961 23.0783C102.236 20.2913 103.155 17.4061 103.731 14.4055C103.795 14.0721 103.821 13.7926 104.277 13.9021C107.348 14.6356 110.315 15.6314 112.761 17.711C117.044 21.351 116.631 27.0818 111.866 30.2801C109.689 31.7409 107.337 32.8493 104.743 33.3681C104.336 33.45 103.919 33.4765 103.505 33.5231C103.4 33.5342 103.292 33.5251 103.142 33.4096C103.758 33.1269 104.377 32.8481 104.991 32.5606C106.995 31.6203 108.716 30.343 109.845 28.3907C111.478 25.5653 111.21 22.7572 109.612 20.0413C108.41 17.9989 106.69 16.4531 104.593 15.3387C104.425 15.2494 104.239 15.1948 103.983 15.0936C103.92 16.0185 103.863 16.8814 103.803 17.7434C103.588 20.8496 102.914 23.8585 101.707 26.7211C98.0491 35.3951 91.4568 40.3884 82.2168 41.8108C78.3022 42.4134 74.3797 42.001 70.6131 40.7016C65.0546 38.7837 60.6637 35.3129 57.5084 30.3675C55.4296 27.1095 54.2518 23.4927 53.9222 19.6309C53.8047 18.2381 53.8169 16.8347 53.7813 15.4348C53.7762 15.2351 53.8339 15.0335 53.8636 14.8322C53.9143 14.8322 53.9657 14.831 54.0175 14.831" fill="#563416"/>
<path fill-rule="evenodd" clip-rule="evenodd" d="M77.9155 58.1133C77.8047 58.1311 77.6825 58.1663 77.5551 58.2177C77.675 58.1801 77.7921 58.1409 77.9155 58.1133" fill="#F8C243"/>
<path fill-rule="evenodd" clip-rule="evenodd" d="M77.5528 57.4424C77.6775 57.4638 77.7969 57.4966 77.918 57.5267C77.7882 57.4828 77.6648 57.4539 77.5528 57.4424" fill="#F8C243"/>
<path fill-rule="evenodd" clip-rule="evenodd" d="M80.8838 58.0203C78.7939 58.549 76.547 59.6369 74.587 61.7343C76.7559 59.4229 79.2477 58.5288 80.8838 58.0203" fill="#F8C243"/>
<path fill-rule="evenodd" clip-rule="evenodd" d="M77.5912 62.2508C77.687 62.1377 77.7827 62.0282 77.8796 61.9198C77.7827 62.0282 77.687 62.1377 77.5912 62.2508" fill="#F8C243"/>
<path fill-rule="evenodd" clip-rule="evenodd" d="M77.6957 62.3417C77.6981 62.3393 77.7021 62.3377 77.7044 62.3354C77.7286 62.3065 77.7511 62.2788 77.7749 62.2511C77.7488 62.2824 77.7222 62.3105 77.6957 62.3417" fill="#F8C243"/>
<path fill-rule="evenodd" clip-rule="evenodd" d="M77.6516 61.9201C77.707 61.8572 77.7636 61.7943 77.819 61.735C77.7636 61.7943 77.707 61.8572 77.6516 61.9201" fill="#F8C243"/>
<path fill-rule="evenodd" clip-rule="evenodd" d="M86.1414 66.1265C86.4437 67.2444 86.6617 68.2919 86.8101 69.1366C86.6526 68.0677 86.4223 67.0645 86.1414 66.1265" fill="#F8C243"/>
<path fill-rule="evenodd" clip-rule="evenodd" d="M82.1325 80.1848C81.9877 80.2869 81.8302 80.394 81.6537 80.5071L81.6549 80.5059C81.7938 80.4292 81.956 80.3169 82.1325 80.1848" fill="#F8C243"/>
<path fill-rule="evenodd" clip-rule="evenodd" d="M38.4764 67.1298C38.2458 68.0816 38.0697 69.0951 37.9688 70.1699C38.0733 69.3189 38.2347 68.2615 38.4764 67.1298" fill="#F8C243"/>
<mask id="mask1_0_368" style="mask-type:luminance" maskUnits="userSpaceOnUse" x="131" y="58" width="19" height="30">
<path fill-rule="evenodd" clip-rule="evenodd" d="M131.321 58.4266H150V87.1364H131.321V58.4266Z" fill="white"/>
</mask>
<g mask="url(#mask1_0_368)">
<path fill-rule="evenodd" clip-rule="evenodd" d="M149.47 73.3628C147.744 62.6621 142.169 59.3183 137.651 58.4321C136.487 58.3953 133.78 58.4811 131.321 60.7106C133.977 60.7549 136.381 61.456 137.509 61.9808C140.357 63.3103 141.785 66.6051 142.391 72.0863C142.706 74.9275 142.904 76.6271 142.989 81.9008C143.11 89.375 152.264 90.6958 149.47 73.3628" fill="#563416"/>
</g>
<path fill-rule="evenodd" clip-rule="evenodd" d="M8.06356 59.2566C8.06238 59.2566 8.06238 59.2578 8.06238 59.2578C11.1295 57.6199 15.281 56.8697 19.9086 59.8383C26.6109 64.1387 25.5391 70.6991 24.5931 73.6914V73.6938C24.5579 73.831 24.4985 73.9987 24.4293 74.1774C24.1836 74.8698 23.9822 75.2803 23.9822 75.2803C23.9822 75.2803 24.0554 75.1201 24.1484 74.8319C23.7503 75.688 23.1885 76.709 22.7667 77.4469C22.5159 77.8851 22.832 78.43 23.3373 78.43H28.7383C28.7383 78.43 32.6568 69.9525 27.0517 63.0612C21.4465 56.1698 12.5866 56.1461 8.06356 59.2566" fill="#F8C243"/>
<path fill-rule="evenodd" clip-rule="evenodd" d="M19.4276 59.8388C14.8 56.869 10.6469 57.6195 7.57978 59.2582C4.86047 60.7111 2.99379 62.8639 2.40823 63.7426C1.8828 64.5307 -1.98666 70.6679 1.3285 77.8527C1.38151 77.9674 1.44442 78.0741 1.50496 78.1825C2.46718 79.6203 6.2132 81.6636 11.4065 81.7956C12.5654 81.7933 13.6336 81.7288 14.4886 81.6509C14.9547 81.5956 15.4283 81.5236 15.9106 81.4342H15.9122C13.7935 81.4734 6.58868 81.0052 5.53822 72.9279C4.39677 64.1518 15.8568 59.7395 21.0145 65.2421C24.9394 69.4294 24.0943 73.508 23.6674 74.8327C23.7758 74.597 23.8703 74.378 23.9483 74.1779C24.0013 74.028 24.0555 73.8682 24.1121 73.6919C25.0565 70.6996 26.1299 64.1392 19.4276 59.8388" fill="#563416"/>
<path fill-rule="evenodd" clip-rule="evenodd" d="M14.9693 82.1317C13.8959 82.2602 12.8684 82.3017 11.8884 82.2764C8.22542 82.2839 3.65684 81.6394 1.98679 78.6648C1.91122 78.5502 1.85069 78.4394 1.81033 78.3335C1.81033 78.3335 5.24894 86.8956 14.866 87.4294C24.4831 87.9629 28.681 80.2585 28.681 80.2585C28.681 80.2585 26.5864 80.0279 16.394 81.915C16.764 81.909 16.982 81.8861 16.982 81.8861C16.982 81.8861 16.1934 82.021 14.9693 82.1317" fill="#F8C243"/>
<path fill-rule="evenodd" clip-rule="evenodd" d="M82.1325 80.6661C81.9561 80.7982 81.7939 80.9105 81.655 80.9872L81.6538 80.9884C79.0124 82.6853 72.9613 85.4427 67.0491 80.1086C62.968 76.4262 62.6012 72.2239 63.3787 68.8349C63.3787 68.8361 63.3775 68.8373 63.3775 68.8373C61.5622 74.0164 63.9112 82.5544 72.0371 86.1513C79.3187 89.3742 84.0321 85.415 84.9326 84.5589C85.0346 84.4604 85.1102 84.3434 85.1529 84.2089C85.3116 83.7114 85.7286 82.2827 85.9921 80.2584C86.4744 76.5433 85.5977 77.4271 85.5977 77.4271C85.5977 77.4271 83.9335 79.1694 82.6413 80.2573C82.8934 80.0935 83.0255 79.9824 83.0255 79.9824C83.0255 79.9824 82.7043 80.2671 82.1325 80.6661" fill="#F8C243"/>
<path fill-rule="evenodd" clip-rule="evenodd" d="M58.262 80.0736C52.1971 86.1642 45.4647 82.8484 43.143 81.3817C43.0789 81.3501 43.0195 81.32 42.9657 81.2895C41.8053 80.6426 39.0231 77.7294 39.0231 77.7294C39.0231 77.7294 38.1463 76.8456 38.629 80.5608C38.8276 82.0955 39.1148 83.2877 39.3127 83.9912C39.4512 84.491 39.7412 84.9304 40.1428 85.259C41.6973 86.5268 46.1333 89.3091 52.5836 86.454C59.1902 83.5293 61.9775 77.3391 61.8141 72.3427C61.7386 74.834 60.8025 77.5218 58.262 80.0736" fill="#F8C243"/>
<path fill-rule="evenodd" clip-rule="evenodd" d="M76.0389 62.7954C84.113 61.6878 86.4568 68.5135 86.9759 70.5666V70.5655C86.9344 70.0771 86.879 69.601 86.8109 69.1367C86.661 68.2921 86.443 67.2445 86.1419 66.1266C84.6507 61.1524 81.6932 58.077 80.0544 57.527C79.9322 57.4965 79.8139 57.4641 79.688 57.4427C71.8822 56.1318 66.9722 61.4762 66.3502 62.1888C65.6551 62.9829 64.0677 65.3484 63.3789 68.3538C62.6015 71.7427 62.9682 75.9447 67.0494 79.6274C72.9616 84.9611 79.0127 82.2041 81.654 80.5073C81.8305 80.3938 81.988 80.287 82.1328 80.185C82.2914 80.0667 82.4639 79.9268 82.6416 79.7757C81.4803 80.5338 77.762 82.4283 72.6834 79.7393C66.0163 76.2092 67.267 64.0003 76.0389 62.7954" fill="#563416"/>
<path fill-rule="evenodd" clip-rule="evenodd" d="M83.0262 79.5007C83.0262 79.5007 82.8924 79.613 82.642 79.7763C82.4632 79.9262 82.2918 80.0662 82.1332 80.1844C82.7037 79.7866 83.0262 79.5007 83.0262 79.5007" fill="#F8C243"/>
<path fill-rule="evenodd" clip-rule="evenodd" d="M80.17 57.4424C80.282 57.4539 80.4054 57.4828 80.5352 57.5267C83.8468 58.3563 85.6668 62.5927 86.6227 66.1263C86.9036 67.0643 87.1342 68.0676 87.2917 69.1364C87.5057 70.3465 87.5841 71.1421 87.5841 71.1421C87.5841 71.1421 87.5473 70.9254 87.4567 70.5668C87.7677 74.3333 87.5888 77.2351 86.7892 83.9062C85.9655 90.7813 96.8016 87.1302 93.4449 71.2275C90.845 58.9103 80.17 57.4424 80.17 57.4424" fill="#F8C243"/>
<path fill-rule="evenodd" clip-rule="evenodd" d="M86.1414 66.1265C85.1855 62.5928 83.3651 58.3565 80.0539 57.5268C81.6939 58.0769 84.6502 61.1526 86.1414 66.1265" fill="#F8C243"/>
<path fill-rule="evenodd" clip-rule="evenodd" d="M86.8105 69.1367C86.8797 69.6014 86.9351 70.0771 86.9755 70.5643V70.567C87.0661 70.9257 87.1013 71.1424 87.1013 71.1424C87.1013 71.1424 87.0245 70.3452 86.8105 69.1367" fill="#F8C243"/>
<mask id="mask2_0_368" style="mask-type:luminance" maskUnits="userSpaceOnUse" x="30" y="58" width="14" height="41">
<path fill-rule="evenodd" clip-rule="evenodd" d="M30.7859 58.1134H43.974V99H30.7859V58.1134Z" fill="white"/>
</mask>
<g mask="url(#mask2_0_368)">
<path fill-rule="evenodd" clip-rule="evenodd" d="M37.4873 70.1701C37.5882 69.0948 37.7643 68.0813 37.995 67.1299C38.7594 63.5496 40.3515 59.2215 43.6152 58.2166C43.7426 58.1664 43.8633 58.1308 43.974 58.1134C43.974 58.1134 34.876 59.6695 32.3281 68.9529C32.3281 68.9529 30.7233 75.1178 30.7878 83.0136C30.9211 99.2651 40.1968 102.445 39.0078 95.6242C38.1675 90.8101 37.5451 87.1388 37.0794 84.5333C36.19 79.5602 37.3679 72.6463 37.3991 71.6091C37.3275 71.9705 37.3034 72.1892 37.3034 72.1892C37.3034 72.1892 37.3386 71.3888 37.4873 70.1701" fill="#F8C243"/>
</g>
<path fill-rule="evenodd" clip-rule="evenodd" d="M58.0288 62.1407C57.3689 61.4621 52.1819 56.3886 44.4568 58.1135C44.3322 58.1412 44.2151 58.18 44.0952 58.2168C40.8331 59.2212 39.241 63.5497 38.4762 67.13C38.2344 68.2618 38.0734 69.3192 37.9685 70.1702C37.9258 70.6384 37.8942 71.1157 37.8803 71.6064V71.6092C38.2886 69.5307 40.2637 62.5876 48.3868 63.2638C57.2102 63.9989 59.1109 76.1235 52.6417 80.0048C46.6499 83.599 42.3017 80.3184 42.3017 80.3184C42.3017 80.3184 42.6028 80.5588 43.1429 80.9001C45.4645 82.3668 52.1969 85.6825 58.2619 79.592C60.8024 77.0402 61.7385 74.3524 61.814 71.8607C61.9561 67.1763 59.0516 63.1918 58.0288 62.1407" fill="#563416"/>
<path fill-rule="evenodd" clip-rule="evenodd" d="M37.9689 70.17C37.8201 71.3888 37.7849 72.1892 37.7849 72.1892C37.7849 72.1892 37.809 71.9705 37.8807 71.6091V71.6067C37.8945 71.1155 37.925 70.6382 37.9689 70.17" fill="#F8C243"/>
<path fill-rule="evenodd" clip-rule="evenodd" d="M99.6049 62.8163C97.6841 65.1241 96.0959 68.5016 95.3034 73.4165C92.467 91.0073 101.758 89.6664 101.881 82.0814C101.967 76.7287 102.168 75.005 102.487 72.121C103.181 65.8402 105.165 62.4311 107.305 60.5868C104.711 60.4812 101.828 60.9644 99.6049 62.8163" fill="#F8C243"/>
<path fill-rule="evenodd" clip-rule="evenodd" d="M118.732 81.0276C118.707 79.7136 118.675 78.6245 118.635 77.6877C118.588 78.948 118.626 80.0568 118.732 81.0276" fill="#F8C243"/>
<path fill-rule="evenodd" clip-rule="evenodd" d="M122.682 63.9744C124.065 66.1699 125.179 69.0819 125.801 72.9355C126.019 74.2926 126.165 75.5351 126.249 76.672C126.356 74.6299 126.507 73.2993 126.704 71.519C127.374 65.4589 129.262 62.0948 131.321 60.2292C133.782 57.9997 136.487 57.9138 137.651 57.9506H137.654C137.654 57.9506 128.081 55.3494 122.682 63.9744" fill="#F8C243"/>
<path fill-rule="evenodd" clip-rule="evenodd" d="M125.768 76.6723C125.684 75.5354 125.537 74.2918 125.32 72.9358C124.697 69.0822 123.584 66.1694 122.201 63.9747C116.695 55.2319 106.919 57.8691 106.919 57.8691C106.768 57.9158 106.602 57.9672 106.428 58.0201C104.792 58.5287 102.301 59.4228 100.133 61.7341C100.077 61.7942 100.02 61.8575 99.965 61.9204C99.8681 62.0272 99.7712 62.1371 99.6766 62.2502C99.6529 62.2779 99.6287 62.3067 99.605 62.3344C101.828 60.4826 104.711 59.9993 107.305 60.1061C109.839 60.2109 112.094 60.878 113.179 61.3842C116.07 62.7338 117.52 66.0773 118.135 71.6392C118.36 73.6709 118.525 75.1329 118.635 77.687C118.675 78.6238 118.708 79.7125 118.732 81.0269C118.736 81.2172 118.739 81.401 118.742 81.6011C118.855 88.6008 126.777 90.2815 125.768 76.6723" fill="#563416"/>
</svg>
